{
  "source": "C:\\Users\\Peter\\Desktop\\stuff\\MIUN\\quantitative_research\\video_compression\\videos\\BVI-HD\\BVI-HD_CDVL_videos\\ORIG\\BallUnderWater_1920x1080_60fps.mp4",
  "output": "C:\\Users\\Peter\\Desktop\\stuff\\MIUN\\quantitative_research\\video_compression\\compressed_videos\\BVI-HD\\h264\\3\\BallUnderWater_1920x1080_60fps_h264.mp4",
  "codec": "h264",
  "ok": "Input #0, mov,mp4,m4a,3gp,3g2,mj2, from 'C:\\Users\\Peter\\Desktop\\stuff\\MIUN\\quantitative_research\\video_compression\\videos\\BVI-HD\\BVI-HD_CDVL_videos\\ORIG\\BallUnderWater_1920x1080_60fps.mp4':\n  Metadata:\n    major_brand     : isom\n    minor_version   : 512\n    compatible_brands: isomiso2avc1mp41\n    encoder         : Lavf54.28.101\n  Duration: 00:00:05.00, start: 0.000000, bitrate: 212030 kb/s\n  Stream #0:0[0x1](und): Video: h264 (High 4:4:4 Predictive) (avc1 / 0x31637661), yuv420p(progressive), 1920x1080, 212025 kb/s, 60 fps, 60 tbr, 60 tbn (default)\n    Metadata:\n      handler_name    : VideoHandler\n      vendor_id       : [0][0][0][0]\n[out#0/mp4 @ 000002664e4d1700] Codec AVOption b:a (set bitrate (in bits/s)) has not been used for any stream. The most likely reason is either wrong type (e.g. a video option with no video streams) or that it is a private option of some decoder which was not actually used for any stream.\nStream mapping:\n  Stream #0:0 -> #0:0 (h264 (native) -> h264 (libx264))\nPress [q] to stop, [?] for help\n[libx264 @ 000002664ea9eb80] using cpu capabilities: MMX2 SSE2Fast SSSE3 SSE4.2 AVX FMA3 BMI2 AVX2\n[libx264 @ 000002664ea9eb80] profile High, level 5.0, 4:2:0, 8-bit\n[libx264 @ 000002664ea9eb80] 264 - core 165 r3222 b35605a - H.264/MPEG-4 AVC codec - Copyleft 2003-2025 - http://www.videolan.org/x264.html - options: cabac=1 ref=5 deblock=1:0:0 analyse=0x3:0x113 me=hex subme=8 psy=1 psy_rd=1.00:0.00 mixed_ref=1 me_range=16 chroma_me=1 trellis=2 8x8dct=1 cqm=0 deadzone=21,11 fast_pskip=1 chroma_qp_offset=-2 threads=18 lookahead_threads=3 sliced_threads=0 nr=0 decimate=1 interlaced=0 bluray_compat=0 constrained_intra=0 bframes=3 b_pyramid=2 b_adapt=1 b_bias=0 direct=3 weightb=1 open_gop=0 weightp=2 keyint=250 keyint_min=25 scenecut=40 intra_refresh=0 rc_lookahead=50 rc=cbr mbtree=1 bitrate=3000 ratetol=1.0 qcomp=0.60 qpmin=0 qpmax=69 qpstep=4 vbv_maxrate=3000 vbv_bufsize=3000 nal_hrd=none filler=0 ip_ratio=1.40 aq=1:1.00\nOutput #0, mp4, to 'C:\\Users\\Peter\\Desktop\\stuff\\MIUN\\quantitative_research\\video_compression\\compressed_videos\\BVI-HD\\h264\\3\\BallUnderWater_1920x1080_60fps_h264.mp4':\n  Metadata:\n    major_brand     : isom\n    minor_version   : 512\n    compatible_brands: isomiso2avc1mp41\n    encoder         : Lavf62.3.100\n  Stream #0:0(und): Video: h264 (avc1 / 0x31637661), yuv420p(tv, progressive), 1920x1080, q=2-31, 3000 kb/s, 60 fps, 15360 tbn (default)\n    Metadata:\n      encoder         : Lavc62.11.100 libx264\n      handler_name    : VideoHandler\n      vendor_id       : [0][0][0][0]\n    Side data:\n      cpb: bitrate max/min/avg: 3000000/0/3000000 buffer size: 3000000 vbv_delay: N/A\nframe=    0 fps=0.0 q=0.0 size=       0KiB time=N/A bitrate=N/A speed=N/A elapsed=0:00:01.17    \nframe=    0 fps=0.0 q=0.0 size=       0KiB time=N/A bitrate=N/A speed=N/A elapsed=0:00:01.89    \nframe=    0 fps=0.0 q=0.0 size=       0KiB time=N/A bitrate=N/A speed=N/A elapsed=0:00:02.43    \nframe=    0 fps=0.0 q=0.0 size=       0KiB time=N/A bitrate=N/A speed=N/A elapsed=0:00:03.09    \nframe=    6 fps=1.6 q=41.0 size=       0KiB time=00:00:00.06 bitrate=   5.8kbits/s speed=0.0174x elapsed=0:00:03.83    \nframe=    8 fps=1.8 q=40.0 size=       0KiB time=00:00:00.10 bitrate=   3.8kbits/s speed=0.022x elapsed=0:00:04.54    \nframe=   11 fps=2.1 q=41.0 size=       0KiB time=00:00:00.13 bitrate=   2.9kbits/s speed=0.0256x elapsed=0:00:05.21    \nframe=   25 fps=4.1 q=40.0 size=       0KiB time=00:00:00.31 bitrate=   1.2kbits/s speed=0.0524x elapsed=0:00:06.04    \nframe=   45 fps=6.7 q=40.0 size=     256KiB time=00:00:00.61 bitrate=3401.4kbits/s speed=0.0924x elapsed=0:00:06.67    \nframe=   57 fps=7.7 q=40.0 size=     256KiB time=00:00:00.81 bitrate=2568.4kbits/s speed=0.11x elapsed=0:00:07.39    \nframe=   60 fps=7.5 q=39.0 size=     256KiB time=00:00:00.95 bitrate=2207.9kbits/s speed=0.118x elapsed=0:00:08.04    \nframe=   62 fps=7.1 q=39.0 size=     256KiB time=00:00:01.00 bitrate=2097.5kbits/s speed=0.115x elapsed=0:00:08.69    \nframe=   64 fps=6.9 q=39.0 size=     256KiB time=00:00:01.03 bitrate=2029.9kbits/s speed=0.112x elapsed=0:00:09.24    \nframe=   74 fps=7.6 q=39.0 size=     256KiB time=00:00:01.18 bitrate=1772.6kbits/s speed=0.121x elapsed=0:00:09.78    \nframe=   84 fps=8.1 q=38.0 size=     256KiB time=00:00:01.35 bitrate=1553.7kbits/s speed=0.13x elapsed=0:00:10.41    \nframe=   93 fps=8.5 q=39.0 size=     512KiB time=00:00:01.48 bitrate=2827.9kbits/s speed=0.135x elapsed=0:00:10.97    \nframe=  103 fps=8.8 q=39.0 size=     512KiB time=00:00:01.65 bitrate=2542.2kbits/s speed=0.141x elapsed=0:00:11.73    \nframe=  111 fps=9.0 q=38.0 size=     512KiB time=00:00:01.80 bitrate=2330.4kbits/s speed=0.146x elapsed=0:00:12.31    \nframe=  123 fps=9.4 q=38.0 size=     512KiB time=00:00:02.00 bitrate=2097.3kbits/s speed=0.153x elapsed=0:00:13.03    \nframe=  131 fps=9.6 q=39.0 size=     768KiB time=00:00:02.15 bitrate=2926.4kbits/s speed=0.157x elapsed=0:00:13.68    \nframe=  137 fps=9.6 q=39.0 size=     768KiB time=00:00:02.25 bitrate=2796.4kbits/s speed=0.157x elapsed=0:00:14.31    \nframe=  146 fps=9.8 q=39.0 size=     768KiB time=00:00:02.38 bitrate=2639.9kbits/s speed=0.16x elapsed=0:00:14.86    \nframe=  155 fps= 10 q=39.0 size=     768KiB time=00:00:02.55 bitrate=2467.4kbits/s speed=0.166x elapsed=0:00:15.40    \nframe=  168 fps= 11 q=38.0 size=     768KiB time=00:00:02.73 bitrate=2301.9kbits/s speed=0.172x elapsed=0:00:15.92    \nframe=  180 fps= 11 q=38.0 size=    1024KiB time=00:00:02.91 bitrate=2876.2kbits/s speed=0.176x elapsed=0:00:16.56    \nframe=  189 fps= 11 q=38.0 size=    1024KiB time=00:00:03.11 bitrate=2691.7kbits/s speed=0.181x elapsed=0:00:17.24    \nframe=  200 fps= 11 q=39.0 size=    1024KiB time=00:00:03.26 bitrate=2568.1kbits/s speed=0.184x elapsed=0:00:17.79    \nframe=  208 fps= 11 q=39.0 size=    1024KiB time=00:00:03.41 bitrate=2455.3kbits/s speed=0.183x elapsed=0:00:18.63    \nframe=  217 fps= 11 q=39.0 size=    1280KiB time=00:00:03.56 bitrate=2940.0kbits/s speed=0.185x elapsed=0:00:19.24    \nframe=  225 fps= 11 q=39.0 size=    1280KiB time=00:00:03.71 bitrate=2821.4kbits/s speed=0.187x elapsed=0:00:19.84    \nframe=  232 fps= 11 q=39.0 size=    1280KiB time=00:00:03.81 bitrate=2747.5kbits/s speed=0.187x elapsed=0:00:20.41    \nframe=  255 fps= 12 q=39.0 size=    1536KiB time=00:00:04.15 bitrate=3032.1kbits/s speed=0.198x elapsed=0:00:20.97    \nframe=  281 fps= 13 q=38.0 size=    1536KiB time=00:00:04.56 bitrate=2755.5kbits/s speed=0.211x elapsed=0:00:21.67    \nframe=  300 fps= 13 q=-1.0 size=    1792KiB time=00:00:04.95 bitrate=2965.7kbits/s speed=0.221x elapsed=0:00:22.34    \n[mp4 @ 000002664e4c9980] Starting second pass: moving the moov atom to the beginning of the file\n[out#0/mp4 @ 000002664e4d1700] video:1827KiB audio:0KiB subtitle:0KiB other streams:0KiB global headers:0KiB muxing overhead: 0.146439%\nframe=  300 fps= 13 q=-1.0 Lsize=    1829KiB time=00:00:04.96 bitrate=3017.2kbits/s speed=0.222x elapsed=0:00:22.38    \n[libx264 @ 000002664ea9eb80] frame I:3     Avg QP:32.38  size: 13092\n[libx264 @ 000002664ea9eb80] frame P:238   Avg QP:35.10  size:  6589\n[libx264 @ 000002664ea9eb80] frame B:59    Avg QP:37.46  size:  4442\n[libx264 @ 000002664ea9eb80] consecutive B-frames: 73.3%  0.7%  2.0% 24.0%\n[libx264 @ 000002664ea9eb80] mb I  I16..4: 56.7% 42.8%  0.6%\n[libx264 @ 000002664ea9eb80] mb P  I16..4: 20.4% 17.9%  0.0%  P16..4: 16.4%  0.6%  0.3%  0.0%  0.0%    skip:44.5%\n[libx264 @ 000002664ea9eb80] mb B  I16..4:  3.2%  2.6%  0.0%  B16..8: 29.6%  1.1%  0.0%  direct: 0.3%  skip:63.1%  L0:51.1% L1:46.9% BI: 2.0%\n[libx264 @ 000002664ea9eb80] 8x8 transform intra:46.6% inter:89.8%\n[libx264 @ 000002664ea9eb80] direct mvs  spatial:84.7% temporal:15.3%\n[libx264 @ 000002664ea9eb80] coded y,uvDC,uvAC intra: 1.9% 16.6% 0.3% inter: 1.2% 4.1% 0.0%\n[libx264 @ 000002664ea9eb80] i16 v,h,dc,p: 28% 30%  7% 35%\n[libx264 @ 000002664ea9eb80] i8 v,h,dc,ddl,ddr,vr,hd,vl,hu:  2%  2% 88%  1%  2%  1%  2%  1%  1%\n[libx264 @ 000002664ea9eb80] i4 v,h,dc,ddl,ddr,vr,hd,vl,hu:  4%  3% 75%  3%  5%  2%  3%  2%  4%\n[libx264 @ 000002664ea9eb80] i8c dc,h,v,p: 90%  7%  3%  1%\n[libx264 @ 000002664ea9eb80] Weighted P-Frames: Y:5.9% UV:2.1%\n[libx264 @ 000002664ea9eb80] ref P L0: 49.8%  7.4% 19.8%  9.2%  7.4%  6.0%  0.3%\n[libx264 @ 000002664ea9eb80] ref B L0: 72.6% 16.8%  8.2%  2.4%\n[libx264 @ 000002664ea9eb80] ref B L1: 91.8%  8.2%\n[libx264 @ 000002664ea9eb80] kb/s:2991.44\n",
  "seconds": 23.289504766464233,
  "probe_out": {}
}